<svg xmlns="http://www.w3.org/2000/svg" viewBox="0 0 295.98 139.74"><defs><style>.cls-1,.cls-2{fill:none;stroke:#eceff1;stroke-miterlimit:10;}.cls-1{stroke-width:5px;}.cls-2{stroke-width:2px;}</style></defs><g id="레이어_2" data-name="레이어 2"><g id="레이어_1-2" data-name="레이어 1"><path class="cls-1" d="M2.5,2.54H25.62v58.4H2.5Zm30.85,0h3.18q12.77,0,19.08,6.15,5.8,5.63,5.8,15.94,0,9.15-6,14.74Q49,45.3,37.73,45.3H33.35Z"/><path class="cls-1" d="M68.41,2.54H91.53v58.4H68.41Zm30.85,0h3.18q12.77,0,19.08,6.15,5.81,5.63,5.8,15.94,0,9.15-6,14.74-6.41,5.93-17.66,5.93H99.26Z"/><path class="cls-1" d="M138.15,2.5H162V61H138.15Zm32,0H194V61H170.12ZM202,2.5h3.87q15.81,0,18.9,10.74a29.48,29.48,0,0,1,1,8V61H202Z"/><path class="cls-1" d="M238.91,19.82h-.26q0-8.85,4.81-13.07t14.83-4.21l35.19,42.71q0,8.51-4.6,12.16T274.27,61Zm-.13,11.6L264.3,61H238.78ZM267,2.54h26.51V32Z"/><path class="cls-2" d="M7.28,126.23V88.72c0-.88,1-1.33,2.93-1.33H11.4c1.91,0,2.86.45,2.86,1.33v14.16a11.07,11.07,0,0,1,3.56-2.64,10.84,10.84,0,0,1,4.62-1,8.56,8.56,0,0,1,5.89,2q2.3,2,2.29,6.06v18.89c0,.89-.95,1.33-2.86,1.33H26.63c-1.95,0-2.92-.44-2.92-1.33V108.14q0-4.2-4.13-4.2a5.56,5.56,0,0,0-3.35,1,6.15,6.15,0,0,0-2,2.1v19.15c0,.89-1,1.33-2.92,1.33H10.21C8.26,127.56,7.28,127.12,7.28,126.23Z"/><path class="cls-2" d="M40.43,125.65a7.6,7.6,0,0,1-2.56-6.12,7.74,7.74,0,0,1,4.65-7.45q4.66-2.28,12.57-2.34v-2a3.6,3.6,0,0,0-1.26-2.85,6.14,6.14,0,0,0-4.06-1.09,14.52,14.52,0,0,0-3.62.4,24.93,24.93,0,0,0-2.83.9,6.76,6.76,0,0,1-1.53.51c-.49,0-1-.41-1.69-1.22a3.61,3.61,0,0,1-1-1.87c0-.49.52-1,1.56-1.49a18.5,18.5,0,0,1,4.09-1.25,27.36,27.36,0,0,1,5.26-.5q5.77,0,8.81,2.23a7.24,7.24,0,0,1,3,6.17v11.5a24,24,0,0,0,.4,5.16,15,15,0,0,1,.4,1.81c0,.49-.54.85-1.63,1.06a15.93,15.93,0,0,1-3,.32,1.62,1.62,0,0,1-1.47-.72,9.33,9.33,0,0,1-.93-2.31,11,11,0,0,1-8.18,3.35A10.48,10.48,0,0,1,40.43,125.65Zm14.66-5.16v-6.65A21.53,21.53,0,0,0,47.41,115a4.26,4.26,0,0,0-2.83,4.29q0,3.83,4.53,3.83A7.47,7.47,0,0,0,55.09,120.49Z"/><path class="cls-2" d="M65.66,136.82A5.12,5.12,0,0,1,66.1,135c.28-.73.67-1.09,1.16-1.09a4.49,4.49,0,0,1,.8.13,6.75,6.75,0,0,0,1.46.13c1.51,0,2.26-1.08,2.26-3.24V100.85c0-.88,1-1.33,3.06-1.33h.66c2,0,3.06.45,3.06,1.33v30.39q0,4-2.29,5.77a8.78,8.78,0,0,1-5.42,1.73Q65.66,138.74,65.66,136.82Zm6-42V91.33c0-.89,1.18-1.33,3.53-1.33s3.46.44,3.46,1.33v3.46c0,.89-1.16,1.33-3.46,1.33S71.71,95.68,71.71,94.79Z"/><path class="cls-2" d="M89.67,124.32q-3.53-3.51-3.53-10.59,0-7.29,3.43-10.88t9.87-3.59q6,0,9,3.59t3,10.45c0,.36-.34.86-1,1.49a2.77,2.77,0,0,1-1.6,1H93.33c.17,2.66.83,4.59,2,5.77a6.79,6.79,0,0,0,5.15,1.79,11.94,11.94,0,0,0,3.66-.48,15.72,15.72,0,0,0,2.49-1,5.05,5.05,0,0,1,1.23-.56c.53,0,1.11.41,1.73,1.23a3.64,3.64,0,0,1,.93,1.86c0,.53-.5,1.07-1.49,1.62a15.1,15.1,0,0,1-3.86,1.36,21.91,21.91,0,0,1-4.76.53Q93.2,127.83,89.67,124.32Zm14.83-12.66c0-2.7-.42-4.7-1.27-6a4.33,4.33,0,0,0-3.92-2A5.08,5.08,0,0,0,95,105.59c-1,1.28-1.55,3.3-1.73,6.07Z"/><path class="cls-2" d="M129.17,127.43a12,12,0,0,1-3.43-1.3c-.86-.54-1.3-1-1.3-1.55a3.59,3.59,0,0,1,1-2c.67-.82,1.22-1.23,1.66-1.23a4.59,4.59,0,0,1,1.2.53,14.05,14.05,0,0,0,2.16.93,8,8,0,0,0,2.63.4,5.78,5.78,0,0,0,3.39-.85,2.8,2.8,0,0,0,1.2-2.44,3.23,3.23,0,0,0-1.37-2.69,19.11,19.11,0,0,0-4.22-2.21,14.8,14.8,0,0,1-5.18-3.17,6.57,6.57,0,0,1-1.73-4.81,6.75,6.75,0,0,1,2.82-5.69,11.78,11.78,0,0,1,7.28-2.13,18.54,18.54,0,0,1,5.29.72c1.62.48,2.43,1.07,2.43,1.78a4.16,4.16,0,0,1-.83,2c-.56.85-1,1.28-1.43,1.28a11.68,11.68,0,0,1-1.5-.61,7.77,7.77,0,0,0-3.22-.62,5.56,5.56,0,0,0-3,.75,2.34,2.34,0,0,0-1.19,2.07,2.86,2.86,0,0,0,1.26,2.45,23.81,23.81,0,0,0,3.86,2.08,15.76,15.76,0,0,1,5.45,3.37,7.82,7.82,0,0,1-1.16,11.1,12.16,12.16,0,0,1-7.62,2.29A19,19,0,0,1,129.17,127.43Z"/><path class="cls-2" d="M172,100.48a5.46,5.46,0,0,1-.2,1l-12.5,35.91c-.31.75-1.31,1.12-3,1.12H155c-1.73,0-2.6-.3-2.6-.9a3.14,3.14,0,0,1,.2-.91L156.63,126l-9.31-24.42a2.85,2.85,0,0,1-.27-1c0-.67.93-1,2.8-1h1.53c1.59,0,2.48.32,2.66,1l4.19,13.36q.33,1.06,1.26,4.78h.33l.53-2,.67-2.76,4.19-13.41c.17-.6,1.1-.91,2.79-.91h1.13C171,99.52,172,99.84,172,100.48Z"/><path class="cls-2" d="M179.37,127.43a11.82,11.82,0,0,1-3.42-1.3c-.87-.54-1.3-1-1.3-1.55a3.52,3.52,0,0,1,1-2c.66-.82,1.22-1.23,1.66-1.23a4.91,4.91,0,0,1,1.2.53,13.25,13.25,0,0,0,2.16.93,7.92,7.92,0,0,0,2.62.4,5.79,5.79,0,0,0,3.4-.85,2.82,2.82,0,0,0,1.19-2.44,3.22,3.22,0,0,0-1.36-2.69,19.59,19.59,0,0,0-4.22-2.21,14.76,14.76,0,0,1-5.19-3.17,6.61,6.61,0,0,1-1.73-4.81,6.74,6.74,0,0,1,2.83-5.69,11.76,11.76,0,0,1,7.28-2.13,18.47,18.47,0,0,1,5.28.72c1.62.48,2.43,1.07,2.43,1.78a4.16,4.16,0,0,1-.83,2c-.55.85-1,1.28-1.43,1.28a11.68,11.68,0,0,1-1.5-.61,7.74,7.74,0,0,0-3.22-.62,5.53,5.53,0,0,0-3,.75,2.33,2.33,0,0,0-1.2,2.07,2.86,2.86,0,0,0,1.26,2.45,24.26,24.26,0,0,0,3.86,2.08,15.56,15.56,0,0,1,5.45,3.37,7.8,7.8,0,0,1-1.16,11.1,12.11,12.11,0,0,1-7.61,2.29A19.05,19.05,0,0,1,179.37,127.43Z"/><path class="cls-2" d="M203.91,126.21c-1.51-1.09-2.26-2.88-2.26-5.4V104.15h-1.73a1.44,1.44,0,0,1-1.17-.45,2.35,2.35,0,0,1-.36-1.46v-.69a2.37,2.37,0,0,1,.36-1.47,1.44,1.44,0,0,1,1.17-.45h1.73l.86-5.43c.09-.88.93-1.33,2.53-1.33h1.06c1.6,0,2.4.45,2.4,1.33v5.43h3.85a1.31,1.31,0,0,1,1.13.45,2.53,2.53,0,0,1,.33,1.47v.69a2.52,2.52,0,0,1-.33,1.46,1.31,1.31,0,0,1-1.13.45H208.5v16.23a3.37,3.37,0,0,0,.59,2.29,2.29,2.29,0,0,0,1.73.64,5.75,5.75,0,0,0,1.27-.14A5.11,5.11,0,0,1,213,123c.44,0,.81.38,1.1,1.14a5.47,5.47,0,0,1,.43,1.79c0,.67-.55,1.15-1.66,1.43a13.61,13.61,0,0,1-3.46.43A9.09,9.09,0,0,1,203.91,126.21Z"/><path class="cls-2" d="M221.79,124.32q-3.53-3.51-3.52-10.59,0-7.29,3.42-10.88t9.88-3.59q6,0,8.94,3.59t3,10.45c0,.36-.33.86-1,1.49a2.73,2.73,0,0,1-1.59,1H225.45c.18,2.66.83,4.59,2,5.77a6.8,6.8,0,0,0,5.16,1.79,11.83,11.83,0,0,0,3.65-.48,15.47,15.47,0,0,0,2.5-1,4.73,4.73,0,0,1,1.23-.56c.53,0,1.11.41,1.73,1.23a3.64,3.64,0,0,1,.93,1.86q0,.8-1.5,1.62a15,15,0,0,1-3.86,1.36,21.75,21.75,0,0,1-4.75.53Q225.32,127.83,221.79,124.32Zm14.83-12.66a11.39,11.39,0,0,0-1.26-6,4.33,4.33,0,0,0-3.92-2,5.11,5.11,0,0,0-4.33,1.92c-1,1.28-1.55,3.3-1.72,6.07Z"/><path class="cls-2" d="M287.06,101.33c1.48,1.39,2.23,3.46,2.23,6.23v18.67c0,.89-1,1.33-2.86,1.33H285.3c-1.95,0-2.93-.44-2.93-1.33V108.36q0-4.42-3.92-4.42a5.45,5.45,0,0,0-3,.88,6.82,6.82,0,0,0-2.16,2.15v19.26c0,.89-.95,1.33-2.86,1.33h-1.19c-2,0-2.93-.44-2.93-1.33V108.36q0-4.42-3.92-4.42a5.42,5.42,0,0,0-3.26,1,5.75,5.75,0,0,0-1.93,2.13v19.15c0,.89-.95,1.33-2.86,1.33h-1.2c-1.9,0-2.86-.44-2.86-1.33V108a27.88,27.88,0,0,0-.33-5.1c-.22-1.07-.33-1.67-.33-1.81,0-.46.61-.81,1.83-1a17.22,17.22,0,0,1,3.09-.35,1.5,1.5,0,0,1,1.43.67,5.8,5.8,0,0,1,.56,1.59c.14.63.23,1.08.27,1.36a10.53,10.53,0,0,1,3.56-2.92,10.11,10.11,0,0,1,4.75-1.12,9.87,9.87,0,0,1,4.52,1,6.16,6.16,0,0,1,2.86,3,11.86,11.86,0,0,1,3.83-2.87,11,11,0,0,1,4.88-1.12A8.32,8.32,0,0,1,287.06,101.33Z"/></g></g></svg>