<svg xmlns="http://www.w3.org/2000/svg" viewBox="0 0 240 64"><defs><style>.cls-1,.cls-2,.cls-3{fill:none;}.cls-1,.cls-2{stroke:#eceff1;stroke-miterlimit:10;}.cls-1{stroke-width:2px;}</style></defs><g id="레이어_2" data-name="레이어 2"><g id="레이어_1-2" data-name="레이어 1"><path class="cls-1" d="M65.18,6.35h8.71v22H65.18Zm11.63,0H78c3.2,0,5.6.77,7.18,2.32a8,8,0,0,1,2.19,6,7.25,7.25,0,0,1-2.27,5.56,9.45,9.45,0,0,1-6.65,2.23H76.81Z"/><path class="cls-1" d="M90,6.35h8.71v22H90Zm11.62,0h1.2c3.21,0,5.6.77,7.19,2.32a8,8,0,0,1,2.18,6A7.24,7.24,0,0,1,110,20.23a9.47,9.47,0,0,1-6.66,2.23h-1.65Z"/><path class="cls-1" d="M116.29,6.34h9v22h-9Zm12,0h9v22h-9Zm12,0h1.46c4,0,6.34,1.34,7.12,4a11.12,11.12,0,0,1,.37,3v15h-9Z"/><path class="cls-1" d="M154.26,12.86h-.1A6.2,6.2,0,0,1,156,7.94q1.82-1.59,5.59-1.59l13.26,16.09q0,3.21-1.74,4.58t-5.5,1.35Zm0,4.37,9.61,11.15h-9.61ZM164.83,6.35h10V17.44Z"/><path class="cls-2" d="M67,53V38.82c0-.33.36-.5,1.1-.5h.45c.72,0,1.08.17,1.08.5v5.33a4.07,4.07,0,0,1,1.34-1,4,4,0,0,1,1.74-.37,3.24,3.24,0,0,1,2.22.76,2.91,2.91,0,0,1,.86,2.29V53c0,.34-.36.5-1.08.5h-.42c-.74,0-1.11-.16-1.11-.5V46.14a1.39,1.39,0,0,0-1.55-1.59,2,2,0,0,0-1.26.4,2.25,2.25,0,0,0-.74.79V53c0,.34-.37.5-1.11.5h-.42C67.35,53.45,67,53.29,67,53Z"/><path class="cls-2" d="M79.48,52.73a2.82,2.82,0,0,1-1-2.3,2.93,2.93,0,0,1,1.75-2.81A11.07,11.07,0,0,1,85,46.74V46a1.34,1.34,0,0,0-.48-1.07A2.25,2.25,0,0,0,83,44.49a5.57,5.57,0,0,0-1.37.15,8.4,8.4,0,0,0-1.07.35,2.83,2.83,0,0,1-.57.19c-.19,0-.4-.16-.64-.47A1.34,1.34,0,0,1,79,44c0-.18.19-.37.59-.56A6.58,6.58,0,0,1,81.12,43a9.78,9.78,0,0,1,2-.19,5.52,5.52,0,0,1,3.31.84A2.74,2.74,0,0,1,87.55,46v4.33a8.17,8.17,0,0,0,.16,1.94,6.16,6.16,0,0,1,.15.68c0,.19-.21.32-.62.4a6,6,0,0,1-1.14.13.62.62,0,0,1-.55-.28,3.49,3.49,0,0,1-.35-.87,4.14,4.14,0,0,1-3.08,1.27A3.92,3.92,0,0,1,79.48,52.73ZM85,50.79V48.28a8.45,8.45,0,0,0-2.89.45A1.61,1.61,0,0,0,81,50.35c0,1,.57,1.44,1.7,1.44A2.81,2.81,0,0,0,85,50.79Z"/><path class="cls-2" d="M89,56.94a2,2,0,0,1,.17-.67c.1-.27.25-.41.43-.41l.3,0a2.9,2.9,0,0,0,.56.05c.56,0,.85-.41.85-1.22V43.39c0-.33.38-.5,1.15-.5h.25c.77,0,1.15.17,1.15.5V54.84A2.56,2.56,0,0,1,93,57a3.27,3.27,0,0,1-2,.65C89.63,57.66,89,57.42,89,56.94Zm2.28-15.83V39.8c0-.33.44-.5,1.33-.5s1.3.17,1.3.5v1.31c0,.33-.43.5-1.3.5S91.26,41.44,91.26,41.11Z"/><path class="cls-2" d="M98,52.23a5.38,5.38,0,0,1-1.33-4A5.76,5.76,0,0,1,98,44.14a4.9,4.9,0,0,1,3.72-1.35,4.12,4.12,0,0,1,3.37,1.35,6.1,6.1,0,0,1,1.11,3.94c0,.14-.12.32-.37.56a1,1,0,0,1-.6.36H99.4a3.49,3.49,0,0,0,.74,2.18,2.58,2.58,0,0,0,2,.67,4.42,4.42,0,0,0,1.37-.18,5.68,5.68,0,0,0,.94-.39,1.83,1.83,0,0,1,.47-.21c.2,0,.41.15.65.46a1.43,1.43,0,0,1,.35.7c0,.2-.19.41-.57.61a5.29,5.29,0,0,1-1.45.51,7.75,7.75,0,0,1-1.79.21A5.5,5.5,0,0,1,98,52.23Zm5.58-4.77a4.33,4.33,0,0,0-.47-2.26,1.63,1.63,0,0,0-1.48-.75,1.91,1.91,0,0,0-1.63.73,4.24,4.24,0,0,0-.65,2.28Z"/><path class="cls-2" d="M112.91,53.4a4.14,4.14,0,0,1-1.29-.49c-.33-.2-.49-.39-.49-.58a1.32,1.32,0,0,1,.38-.74c.25-.31.45-.46.62-.46a1.88,1.88,0,0,1,.45.2,5.62,5.62,0,0,0,.82.35,3,3,0,0,0,1,.15,2.18,2.18,0,0,0,1.27-.32,1.06,1.06,0,0,0,.46-.92,1.22,1.22,0,0,0-.52-1,7.45,7.45,0,0,0-1.59-.84,5.39,5.39,0,0,1-2-1.19,2.47,2.47,0,0,1-.65-1.81,2.56,2.56,0,0,1,1.06-2.15,4.45,4.45,0,0,1,2.74-.8,7.06,7.06,0,0,1,2,.27c.6.18.91.41.91.67a1.62,1.62,0,0,1-.31.76c-.21.33-.39.49-.54.49a3.87,3.87,0,0,1-.57-.24,3,3,0,0,0-1.21-.23,2.17,2.17,0,0,0-1.13.28.89.89,0,0,0-.45.79,1.08,1.08,0,0,0,.48.92,8.18,8.18,0,0,0,1.45.78,6,6,0,0,1,2,1.27,2.94,2.94,0,0,1-.43,4.18,4.54,4.54,0,0,1-2.87.87A7,7,0,0,1,112.91,53.4Z"/><path class="cls-2" d="M129,43.25a1.6,1.6,0,0,1-.07.36l-4.71,13.53c-.12.28-.5.42-1.13.42h-.5c-.65,0-1-.11-1-.34a1.22,1.22,0,0,1,.08-.34l1.53-4-3.51-9.2a1,1,0,0,1-.1-.38c0-.25.35-.38,1-.38h.58c.6,0,.93.12,1,.36l1.58,5c.08.27.24.87.47,1.81h.13l.2-.76.25-1,1.58-5.05c.06-.23.41-.34,1.05-.34H128C128.68,42.89,129,43,129,43.25Z"/><path class="cls-2" d="M131.82,53.4a4.35,4.35,0,0,1-1.29-.49c-.32-.2-.48-.39-.48-.58a1.35,1.35,0,0,1,.37-.74c.25-.31.46-.46.63-.46a1.88,1.88,0,0,1,.45.2,6,6,0,0,0,.81.35,3,3,0,0,0,1,.15,2.22,2.22,0,0,0,1.28-.32,1.06,1.06,0,0,0,.45-.92,1.21,1.21,0,0,0-.51-1,8,8,0,0,0-1.59-.84,5.53,5.53,0,0,1-2-1.19,2.51,2.51,0,0,1-.65-1.81,2.56,2.56,0,0,1,1.07-2.15,4.43,4.43,0,0,1,2.74-.8,7,7,0,0,1,2,.27c.61.18.91.41.91.67a1.52,1.52,0,0,1-.31.76c-.21.33-.39.49-.54.49a4.06,4.06,0,0,1-.56-.24,3,3,0,0,0-1.22-.23,2.14,2.14,0,0,0-1.12.28.89.89,0,0,0-.45.79,1.07,1.07,0,0,0,.47.92,8.35,8.35,0,0,0,1.46.78,6.07,6.07,0,0,1,2.05,1.27,2.93,2.93,0,0,1-.44,4.18,4.52,4.52,0,0,1-2.87.87A7.15,7.15,0,0,1,131.82,53.4Z"/><path class="cls-2" d="M141.07,52.94a2.31,2.31,0,0,1-.85-2V44.63h-.65a.5.5,0,0,1-.44-.17.81.81,0,0,1-.14-.55v-.26a.82.82,0,0,1,.14-.55.53.53,0,0,1,.44-.17h.65l.32-2c0-.34.35-.51,1-.51h.41q.9,0,.9.51v2h1.45a.52.52,0,0,1,.43.17,1,1,0,0,1,.12.55v.26a1,1,0,0,1-.12.55.49.49,0,0,1-.43.17H142.8v6.12a1.27,1.27,0,0,0,.22.86.85.85,0,0,0,.65.24,2.44,2.44,0,0,0,.48-.05,2,2,0,0,1,.33,0c.16,0,.3.14.41.43a2,2,0,0,1,.16.67c0,.26-.21.44-.62.54a5.17,5.17,0,0,1-1.31.17A3.41,3.41,0,0,1,141.07,52.94Z"/><path class="cls-2" d="M147.81,52.23a5.38,5.38,0,0,1-1.33-4,5.76,5.76,0,0,1,1.29-4.1,4.9,4.9,0,0,1,3.72-1.35,4.12,4.12,0,0,1,3.37,1.35A6.1,6.1,0,0,1,156,48.08c0,.14-.13.32-.38.56a1,1,0,0,1-.6.36h-5.81a3.43,3.43,0,0,0,.73,2.18,2.58,2.58,0,0,0,2,.67,4.42,4.42,0,0,0,1.37-.18,5.68,5.68,0,0,0,.94-.39,1.83,1.83,0,0,1,.47-.21c.2,0,.41.15.65.46a1.43,1.43,0,0,1,.35.7c0,.2-.19.41-.56.61a5.37,5.37,0,0,1-1.46.51,7.75,7.75,0,0,1-1.79.21A5.5,5.5,0,0,1,147.81,52.23Zm5.58-4.77a4.23,4.23,0,0,0-.47-2.26,1.63,1.63,0,0,0-1.48-.75,1.91,1.91,0,0,0-1.63.73,4.24,4.24,0,0,0-.65,2.28Z"/><path class="cls-2" d="M172.4,43.57a3.07,3.07,0,0,1,.84,2.35v7c0,.34-.36.5-1.08.5h-.43c-.73,0-1.1-.16-1.1-.5V46.22c0-1.11-.49-1.67-1.48-1.67a2.1,2.1,0,0,0-1.14.33,2.75,2.75,0,0,0-.81.82V53c0,.34-.36.5-1.08.5h-.45c-.73,0-1.1-.16-1.1-.5V46.22c0-1.11-.49-1.67-1.48-1.67a2,2,0,0,0-1.23.39,2.12,2.12,0,0,0-.72.8V53c0,.34-.36.5-1.08.5h-.45c-.72,0-1.08-.16-1.08-.5V46.08a11,11,0,0,0-.12-1.93,5.57,5.57,0,0,1-.13-.68q0-.26.69-.39a6.19,6.19,0,0,1,1.16-.13.55.55,0,0,1,.54.25,2.34,2.34,0,0,1,.22.6c.05.24.08.41.1.51a3.93,3.93,0,0,1,1.34-1.1,3.84,3.84,0,0,1,1.79-.42,3.64,3.64,0,0,1,1.7.37,2.42,2.42,0,0,1,1.08,1.13,4.4,4.4,0,0,1,1.44-1.08,4.17,4.17,0,0,1,1.84-.42A3.13,3.13,0,0,1,172.4,43.57Z"/><rect class="cls-3" width="240" height="64"/></g></g></svg>